<!DOCTYPE svg PUBLIC "-//W3C//DTD SVG 1.1//EN" "http://www.w3.org/Graphics/SVG/1.1/DTD/svg11.dtd">
<!-- Uploaded to: SVG Repo, www.svgrepo.com, Transformed by: SVG Repo Mixer Tools -->
<svg width="800px" height="800px" viewBox="0 0 24 24" id="Layer_1" data-name="Layer 1" xmlns="http://www.w3.org/2000/svg" fill="#2d85e7">
<g id="SVGRepo_bgCarrier" stroke-width="0"/>
<g id="SVGRepo_tracerCarrier" stroke-linecap="round" stroke-linejoin="round"/>
<g id="SVGRepo_iconCarrier">
<defs>
<style>.cls-1{fill:none;stroke:#2d85e7;stroke-miterlimit:10;stroke-width:1.91px;}</style>
</defs>
<path class="cls-1" d="M3.33,23.5V5.33A3.82,3.82,0,0,1,7.15,1.5h4.78a3.82,3.82,0,0,1,3.83,3.83h0"/>
<polygon class="cls-1" points="10.98 7.24 15.76 5.33 20.54 7.24 20.54 10.11 10.98 10.11 10.98 7.24"/>
<line class="cls-1" x1="11.93" y1="12.98" x2="11.93" y2="14.89"/>
<line class="cls-1" x1="15.76" y1="12.98" x2="15.76" y2="14.89"/>
<line class="cls-1" x1="19.59" y1="12.98" x2="19.59" y2="14.89"/>
<line class="cls-1" x1="11.93" y1="20.63" x2="11.93" y2="22.54"/>
<line class="cls-1" x1="15.76" y1="20.63" x2="15.76" y2="22.54"/>
<line class="cls-1" x1="19.59" y1="20.63" x2="19.59" y2="22.54"/>
<line class="cls-1" x1="13.85" y1="16.8" x2="13.85" y2="18.72"/>
<line class="cls-1" x1="17.67" y1="16.8" x2="17.67" y2="18.72"/>
<line class="cls-1" x1="0.46" y1="19.67" x2="6.2" y2="19.67"/>
</g>
</svg>